<svg xmlns="http://www.w3.org/2000/svg" viewBox="0 0 64 64"><defs><style>.cls-2{fill:#fb0}.cls-3{fill:#e2e2e2}.cls-4,.cls-9{fill:#fff}.cls-5,.cls-6{fill:none}.cls-5{stroke:#000;stroke-linecap:round;stroke-linejoin:round;stroke-width:2px}.cls-9{mix-blend-mode:overlay}</style></defs><g style="isolation:isolate"><g id="Layer_1" data-name="Layer 1"><g id="Vector"><path class="cls-2" d="M45.62 34.51a13.51 13.51 0 0 1-2.83 8.3 5.86 5.86 0 0 0-1-.35l-.33-.09a6.28 6.28 0 0 0-1.38-.15A6.39 6.39 0 0 0 35.7 44a6.27 6.27 0 0 0-2 4 12.54 12.54 0 0 1-1.75.12 13.61 13.61 0 0 1-4.87-26.33h7.26a1.49 1.49 0 0 0 1.11-.45 13.63 13.63 0 0 1 10.17 13.17zM16.68 27.51a.61.61 0 0 1-.15.3 8.56 8.56 0 0 0-1.33 3.74 8.29 8.29 0 0 0 0 4 .63.63 0 0 1-.22.72.62.62 0 0 1-.75 0l-6.5-5.5a.62.62 0 0 1 .18-1.05l8-2.89a.62.62 0 0 1 .72.23.61.61 0 0 1 .05.45zM15.76 39a.62.62 0 0 1 .09.32A8.29 8.29 0 0 0 17.23 43a8.31 8.31 0 0 0 2.53 3.06.62.62 0 0 1 .3.69.61.61 0 0 1-.59.46H11a.6.6 0 0 1-.53-.3.62.62 0 0 1 0-.62L14.7 39a.62.62 0 0 1 .7-.28.57.57 0 0 1 .36.28zM26.16 50.53a8.3 8.3 0 0 1-3.44-2 .67.67 0 0 0-.28-.19.63.63 0 0 0-.45 0 .61.61 0 0 0-.36.66l1.47 8.4a.59.59 0 0 0 .4.46.58.58 0 0 0 .59-.1l3.2-2.68a5.76 5.76 0 0 1 .12-1.18 7.15 7.15 0 0 1 .47-1.51 5.72 5.72 0 0 1 .71-1.16 12.06 12.06 0 0 1-2.43-.7zM53.53 46.32 49.28 39a.6.6 0 0 0-.69-.28.61.61 0 0 0-.44.6A8.45 8.45 0 0 1 46.76 43a13.23 13.23 0 0 1-1.36 2 6.25 6.25 0 0 1 .67 1.28 4 4 0 0 1 .22.61 6.42 6.42 0 0 1 1.77-.26 6.11 6.11 0 0 1 2.66.61H53a.66.66 0 0 0 .54-.3.65.65 0 0 0-.01-.62zM48.78 35.85a.57.57 0 0 1 0-.34 8.4 8.4 0 0 0 0-4 8.48 8.48 0 0 0-1.33-3.74.63.63 0 0 1-.05-.75.6.6 0 0 1 .71-.23l8 2.89a.6.6 0 0 1 .39.47.62.62 0 0 1-.2.58l-6.49 5.44a.63.63 0 0 1-.76 0 .65.65 0 0 1-.27-.32zM45.72 24.74a.52.52 0 0 1-.19-.27 8.33 8.33 0 0 0-2.58-3 8.21 8.21 0 0 0-3.42-2 .62.62 0 0 1-.51-.55.59.59 0 0 1 .39-.63l8-2.9a.62.62 0 0 1 .6.11.6.6 0 0 1 .21.57l-1.47 8.34a.62.62 0 0 1-.56.51.6.6 0 0 1-.47-.18z"/><path class="cls-3" d="M61 58.43a1.6 1.6 0 0 1-1.34.71h-30a1.6 1.6 0 0 1-1.37-.75 6.58 6.58 0 0 1-.94-2.89v-.42a5.76 5.76 0 0 1 .12-1.18 7.15 7.15 0 0 1 .47-1.51 5.72 5.72 0 0 1 .71-1.16 6.21 6.21 0 0 1 2.23-1.87 6.34 6.34 0 0 1 2.88-.69 4.21 4.21 0 0 1 0-.62 6.27 6.27 0 0 1 2-4 6.39 6.39 0 0 1 4.41-1.76 6.28 6.28 0 0 1 1.38.15l.33.09a5.86 5.86 0 0 1 1 .35 6.28 6.28 0 0 1 2 1.38 7.29 7.29 0 0 1 .66.81 6.25 6.25 0 0 1 .67 1.28 4 4 0 0 1 .22.61 6.42 6.42 0 0 1 1.77-.26 6.11 6.11 0 0 1 2.66.61 6 6 0 0 1 1.68 1.17 4.74 4.74 0 0 1 .79.93 6.11 6.11 0 0 1 2.57-.56 6.26 6.26 0 0 1 6.15 5.07A6.91 6.91 0 0 1 61 58.43zM36.69 17.16a7.94 7.94 0 0 1 0 .84 6 6 0 0 1-.6 2.42 3.48 3.48 0 0 1-.35.66.39.39 0 0 1-.08.1.61.61 0 0 1-.16.16 1.49 1.49 0 0 1-1.11.45h-30A1.6 1.6 0 0 1 3 21a6.42 6.42 0 0 1-1-3.36 5 5 0 0 1 .12-1.17 6.37 6.37 0 0 1 6.28-5.24A6.42 6.42 0 0 1 16.22 5 6.4 6.4 0 0 1 21 9.54a6.41 6.41 0 0 1 1.77-.25 6.15 6.15 0 0 1 4.34 1.77 5 5 0 0 1 .79.93 6.28 6.28 0 0 1 2.58-.56h.12a6.31 6.31 0 0 1 6 5.08c.05.19.07.41.09.65z"/><ellipse class="cls-4" cx="38.89" cy="26.94" rx="1.44" ry="2.83" transform="rotate(-47.12 38.885 26.932)"/><ellipse class="cls-4" cx="41.8" cy="31.37" rx=".86" ry="1.7" transform="rotate(-25 41.79 31.365)"/></g><g id="Line"><path class="cls-5" d="M45.62 34.51a13.51 13.51 0 0 1-2.83 8.3 5.86 5.86 0 0 0-1-.35l-.33-.09h0a6.28 6.28 0 0 0-1.38-.15A6.39 6.39 0 0 0 35.7 44a6.27 6.27 0 0 0-2 4 12.54 12.54 0 0 1-1.75.12 13.61 13.61 0 0 1-4.87-26.33h7.26a1.49 1.49 0 0 0 1.11-.45 13.63 13.63 0 0 1 10.17 13.17zM16.68 27.51a.61.61 0 0 1-.15.3 8.56 8.56 0 0 0-1.33 3.74 8.29 8.29 0 0 0 0 4 .63.63 0 0 1-.22.72.62.62 0 0 1-.75 0l-6.5-5.5a.62.62 0 0 1 .18-1.05l8-2.89a.62.62 0 0 1 .72.23.61.61 0 0 1 .05.45zM15.76 39a.62.62 0 0 1 .09.32A8.29 8.29 0 0 0 17.23 43a8.31 8.31 0 0 0 2.53 3.06.62.62 0 0 1 .3.69.61.61 0 0 1-.59.46H11a.6.6 0 0 1-.53-.3.62.62 0 0 1 0-.62L14.7 39a.62.62 0 0 1 .7-.28.57.57 0 0 1 .36.28zM26.16 50.53a8.3 8.3 0 0 1-3.44-2 .67.67 0 0 0-.28-.19.63.63 0 0 0-.45 0 .61.61 0 0 0-.36.66l1.47 8.4a.59.59 0 0 0 .4.46.58.58 0 0 0 .59-.1l3.2-2.68v0a5.76 5.76 0 0 1 .12-1.18 7.15 7.15 0 0 1 .47-1.51 5.72 5.72 0 0 1 .71-1.16 12.06 12.06 0 0 1-2.43-.7zM53.53 46.32 49.28 39a.6.6 0 0 0-.69-.28.61.61 0 0 0-.44.6A8.45 8.45 0 0 1 46.76 43a13.23 13.23 0 0 1-1.36 2 6.25 6.25 0 0 1 .67 1.28 4 4 0 0 1 .22.61 6.42 6.42 0 0 1 1.77-.26 6.11 6.11 0 0 1 2.66.61H53a.66.66 0 0 0 .54-.3.65.65 0 0 0-.01-.62zM48.78 35.85a.57.57 0 0 1 0-.34 8.4 8.4 0 0 0 0-4 8.48 8.48 0 0 0-1.33-3.74.63.63 0 0 1-.05-.75.6.6 0 0 1 .71-.23l8 2.89a.6.6 0 0 1 .39.47.62.62 0 0 1-.2.58l-6.49 5.44a.63.63 0 0 1-.76 0 .65.65 0 0 1-.27-.32zM45.72 24.74a.52.52 0 0 1-.19-.27 8.33 8.33 0 0 0-2.58-3 8.21 8.21 0 0 0-3.42-2 .62.62 0 0 1-.51-.55.59.59 0 0 1 .39-.63l8-2.9a.62.62 0 0 1 .6.11.6.6 0 0 1 .21.57l-1.47 8.34a.62.62 0 0 1-.56.51.6.6 0 0 1-.47-.18z"/><path class="cls-5" d="M61 58.43h0a1.6 1.6 0 0 1-1.34.71h-30a1.6 1.6 0 0 1-1.37-.75 6.58 6.58 0 0 1-.94-2.89v-.42 0a5.76 5.76 0 0 1 .12-1.18 7.15 7.15 0 0 1 .47-1.51 5.72 5.72 0 0 1 .71-1.16 6.21 6.21 0 0 1 2.23-1.87 6.34 6.34 0 0 1 2.88-.69 4.21 4.21 0 0 1 0-.62 6.27 6.27 0 0 1 2-4 6.39 6.39 0 0 1 4.41-1.76 6.28 6.28 0 0 1 1.38.15h0l.33.09a5.86 5.86 0 0 1 1 .35 6.28 6.28 0 0 1 2 1.38 7.29 7.29 0 0 1 .66.81 6.25 6.25 0 0 1 .67 1.28 4 4 0 0 1 .22.61 6.42 6.42 0 0 1 1.77-.26 6.11 6.11 0 0 1 2.66.61 6 6 0 0 1 1.68 1.17 4.74 4.74 0 0 1 .79.93 6.11 6.11 0 0 1 2.57-.56 6.26 6.26 0 0 1 6.15 5.07A6.91 6.91 0 0 1 61 58.43zM36.69 17.16a7.94 7.94 0 0 1 0 .84 6 6 0 0 1-.6 2.42 3.48 3.48 0 0 1-.35.66.39.39 0 0 1-.08.1.61.61 0 0 1-.16.16 1.49 1.49 0 0 1-1.11.45h-30A1.6 1.6 0 0 1 3 21a6.42 6.42 0 0 1-1-3.36 5 5 0 0 1 .12-1.17 6.37 6.37 0 0 1 6.28-5.24A6.42 6.42 0 0 1 16.22 5h0A6.4 6.4 0 0 1 21 9.54a6.41 6.41 0 0 1 1.77-.25 6.15 6.15 0 0 1 4.34 1.77 5 5 0 0 1 .79.93 6.28 6.28 0 0 1 2.58-.56h.12a6.31 6.31 0 0 1 6 5.08c.05.19.07.41.09.65z"/><ellipse class="cls-6" cx="38.89" cy="26.94" rx="1.44" ry="2.83" transform="rotate(-47.12 38.885 26.932)"/><ellipse class="cls-6" cx="41.8" cy="31.37" rx=".86" ry="1.7" transform="rotate(-25 41.79 31.365)"/></g><g id="Shadow" style="opacity:.25;mix-blend-mode:multiply"><path d="m20.71 26.88.16-.05a3.28 3.28 0 0 0-1.23 1c-.41.58-.32.88-.69 2.75-.1.49-.33 1.57-.54 3a3.15 3.15 0 0 0 0 .94 3.23 3.23 0 0 0 .84 1.7l-.78-.66a13.47 13.47 0 0 0 .93 4l.3-.56c-.31.27-.36.46-.34.59a1.59 1.59 0 0 0 .15.38L20 41a6.51 6.51 0 0 0 2.21 2 7.3 7.3 0 0 1 2.09 2.72 13.47 13.47 0 0 0 7.7 2.4 12.54 12.54 0 0 0 1.74-.12 4.21 4.21 0 0 0 0 .62 6.34 6.34 0 0 0-2.88.69 6.07 6.07 0 0 0-1 .65c.24.21.54.42.74.33s.07-.61.28-1c.46-.82 2.3-.25 2.48-.65s-2.9-1.92-5.38-4.34c-.83-.81-4.44-4.51-4.55-9.81A13.27 13.27 0 0 1 24 30.3a13.62 13.62 0 0 1 8.08-8.51h-5a13.69 13.69 0 0 0-6.37 5.09zM7.52 30.19a.7.7 0 0 0 0 .32.61.61 0 0 0 .19.26l6.48 5.44a.62.62 0 0 0 .75 0 .63.63 0 0 0 .22-.72 6.94 6.94 0 0 1-.13-2.81l-2.32-1.94-3.11-2.09c-1.23.66-2.05 1.28-2.08 1.54zM32.86 11.92v.07L33 12zM14.7 39l-4.23 7.33a.62.62 0 0 0 0 .62.6.6 0 0 0 .53.3h5a2.09 2.09 0 0 0-.53-.3 2.9 2.9 0 0 0-2.42.3l3.16-6.36a11.63 11.63 0 0 1-.36-1.57.67.67 0 0 0 0-.25V39c-.15-.12-.59-.13-1.15 0z"/><path d="M22.72 48.57a.67.67 0 0 0-.28-.19.54.54 0 0 0-.45 0 .61.61 0 0 0-.36.66l1.47 8.36a.59.59 0 0 0 .4.46.58.58 0 0 0 .59-.1l3.2-2.68v.42a6.58 6.58 0 0 0 .94 2.89 1.6 1.6 0 0 0 1.37.75h5a1.6 1.6 0 0 1-1.37-.75 5.67 5.67 0 0 1-.94-2.89 23.34 23.34 0 0 1 1-6.84 5.39 5.39 0 0 0-4.21 9.1.65.65 0 0 1-.59.1.59.59 0 0 1-.4-.46l-1.16-6.61c-.25-.07-.5-.16-.78-.26a8.3 8.3 0 0 1-3.43-1.96zM4.35 21.79h5A1.6 1.6 0 0 1 8 21a6.42 6.42 0 0 1-1-3.36 5 5 0 0 1 .12-1.17 6.37 6.37 0 0 1 6.28-5.24 6.37 6.37 0 0 1 2-4.65 6.2 6.2 0 0 1 1.89-1.24A7.07 7.07 0 0 0 16.22 5a6.43 6.43 0 0 0-7.8 6.26 6.37 6.37 0 0 0-6.28 5.24A5 5 0 0 0 2 17.68 6.42 6.42 0 0 0 3 21a1.6 1.6 0 0 0 1.35.79z"/></g><g id="Highligth" style="mix-blend-mode:overlay"><path class="cls-9" d="M53.53 46.94a.65.65 0 0 0 0-.62L49.28 39a.6.6 0 0 0-.69-.28.61.61 0 0 0-.44.6A8.45 8.45 0 0 1 46.76 43l-.07.12 1.84 3.17a.65.65 0 0 1 0 .62.54.54 0 0 1-.16.14 4.94 4.94 0 0 1 3.34 1.78 6.63 6.63 0 0 1 1.42.4 5.45 5.45 0 0 0-.73-.85 6 6 0 0 0-1.68-1.17H53a.66.66 0 0 0 .53-.27zM48.94 32.71a7.12 7.12 0 0 1-.12 2.8.57.57 0 0 0 0 .34.65.65 0 0 0 .24.39.63.63 0 0 0 .76 0l6.49-5.44a.62.62 0 0 0 .2-.58.6.6 0 0 0-.39-.47zM55.76 48.78a6.3 6.3 0 0 0-2.51.53 6.27 6.27 0 0 1 3.66 4.54 6.91 6.91 0 0 1-.9 4.58 1.6 1.6 0 0 1-1.34.71h5a1.6 1.6 0 0 0 1.33-.71 6.91 6.91 0 0 0 .9-4.58 6.26 6.26 0 0 0-6.14-5.07zM43.51 21.82c-.44-.32-.55-.38-.56-.37s2.5 2.78 2.58 3a.52.52 0 0 0 .19.27.6.6 0 0 0 .43.15.62.62 0 0 0 .56-.51L48.18 16a.6.6 0 0 0-.21-.57.62.62 0 0 0-.6-.11l-1.85.68zM31.08 20.42a3.48 3.48 0 0 1-.35.66.39.39 0 0 1-.08.1.61.61 0 0 1-.16.16 13.6 13.6 0 0 1 8.05 20.38 3.88 3.88 0 0 1 1.72.14 6.58 6.58 0 0 1 1.7.81c1.87-1.47 2.15-2.12 2-2.45a1 1 0 0 1-.11-.54 1.17 1.17 0 0 1 .4-.69l.35.6a13.69 13.69 0 0 0 .95-4.05l-.8.67s.69.33.68.34a.94.94 0 0 1-.68-.34c-.28-.43.27-1 .5-1.77.37-1.2-.61-1.35-.73-3.38a8.73 8.73 0 0 0-.35-2.59 1.77 1.77 0 0 0-.3-.58c-.55-.68-1.51-.66-1.49-.83s.36-.2.71-.23l.15.05a13.47 13.47 0 0 0-1.79-2.13.55.55 0 0 1-.33.14.6.6 0 0 1-.43-.15.52.52 0 0 1-.19-.27 4.85 4.85 0 0 0-.65-1 13.55 13.55 0 0 0-4.39-2.08.61.61 0 0 0 .16-.16.39.39 0 0 0 .08-.1 3.48 3.48 0 0 0 .35-.66c0-.08.07-.16.11-.25l-.11.25.37-1 .24-2a2.43 2.43 0 0 1 0-.27c0-.24 0-.46-.06-.65a6.31 6.31 0 0 0-6-5.08h-.12A6.15 6.15 0 0 0 28 12a5.92 5.92 0 0 1 1.05.57 6.2 6.2 0 0 1 2.61 4c0 .19 0 .41.06.65a7.94 7.94 0 0 1 0 .84 6 6 0 0 1-.64 2.36z"/></g></g></g></svg>