<svg xmlns="http://www.w3.org/2000/svg" viewBox="0 0 100 100" xml:space="preserve"><path fill="#F29D00" d="M40.901 23.802 49.314 9.23l8.413 14.572z"/><path fill="#F29D00" d="m55.567 23.05 13.701-9.769 1.609 16.749z"/><path fill="#F29D00" d="m68.205 28.517 16.806-.807-7.705 14.958z"/><path fill="#F29D00" d="m76.07 39.524 15.636 6.216-13.201 10.434z"/><path fill="#F29D00" d="M79.159 52.437 90.17 65.159l-16.524 3.175zM22.909 59.753 8.294 51.418l14.527-8.489z"/><path fill="#F29D00" d="m30.718 71.337-16.826.046 8.373-14.595zM22.32 44.003l-7.534-15.045 16.796.998z"/><path fill="#F29D00" d="m28.67 31.318-.368-16.822 14.752 8.093zM54.567 77.649 46.061 90.77l-7.11-13.926z"/><path fill="#F29D00" d="m41.462 76.56-13.183 8.411-.692-15.622zM66.606 73.264l-1.895 15.521-12.494-9.402z"/><path fill="#F29D00" d="m74.971 65.147 4.348 15.02-15.181-3.745z"/><path fill="#F1C600" d="M79.015 50.325c0 15.858-12.856 28.712-28.714 28.712-15.859 0-28.714-12.854-28.714-28.712 0-10.925 6.101-20.426 15.082-25.278A28.58 28.58 0 0 1 50.3 21.611c15.859 0 28.715 12.856 28.715 28.714z"/><path fill="#EDAD00" d="M51.12 21.611a28.58 28.58 0 0 0-13.631 3.436C28.508 29.899 22.407 39.4 22.407 50.325c0 15.858 12.854 28.712 28.713 28.712V21.611z"/></svg>